<!-- <?xml version="1.0" encoding="utf-8"?> -->
<!-- Generator: Adobe Illustrator 16.0.0, SVG Export Plug-In . SVG Version: 6.00 Build 0)  -->
<!-- <!DOCTYPE svg PUBLIC "-//W3C//DTD SVG 1.1//EN" "http://www.w3.org/Graphics/SVG/1.1/DTD/svg11.dtd"> -->
<svg version="1.1" id="Capa_1" xmlns="http://www.w3.org/2000/svg" xmlns:xlink="http://www.w3.org/1999/xlink" x="0px" y="0px"
	width="1400px" height="980px" viewBox="0 0 1400 980" enable-background="new 0 0 1400 980" xml:space="preserve">
<path class="untitled-img d2" fill="#EDB73E" d="M905.791,110.204c7.06,2.113,88.46,108.771,122.359,150.431c26.834,32.838,49.795,61.099,68.862,84.758
	c18.358,23.294,27.546,33.896,27.546,31.78c-0.354-2.475-18.194,18.187-53.502,61.972c-40.253,49.8-102.231,121.833-185.928,216.122
	c-84.401,94.99-146.195,166.506-185.395,214.53c-56.149-62.155-197.581-226.354-424.292-492.624
	c70.269-92.877,139.659-181.859,208.174-266.969H905.791z M623.457,689.174c-1.773-4.958-34.259-104.535-97.462-298.768
	c-13.773-0.339-36.553-0.339-68.333,0c-29.664,0-50.851,0-63.57,0C479.555,505.89,546.123,594.883,593.793,657.38
	C607.911,676.109,617.807,686.696,623.457,689.174z M479.378,303.537c24.719,0.363,43.781-0.521,57.209-2.646
	c-4.238-4.588-14.131-16.595-29.664-36.019c-12.012-14.833-21.9-26.828-29.663-36.018c-5.65,8.825-15.362,21.185-29.135,37.072
	c-13.067,15.552-22.603,27.909-28.606,37.089C426.586,303.016,446.535,303.198,479.378,303.537z M617.103,210.841
	c13.062-16.599,22.245-29.658,27.542-39.199H530.233c15.532,26.84,35.308,52.977,59.324,78.397
	C594.856,240.507,604.034,227.447,617.103,210.841z M695.5,765.979c8.473-40.972,22.063-103.295,40.788-186.996
	c18.009-81.566,31.422-143.72,40.255-186.453c-39.551-2.123-89.171-2.814-148.847-2.123
	C653.822,545.088,676.429,670.284,695.5,765.979z M754.824,317.849c-4.947-8.824-24.018-32.851-57.208-72.05
	c-4.945,7.065-14.483,19.073-28.606,36.021c-12.366,14.833-21.901,26.842-28.6,36.029H754.824z M837.987,210.841
	c13.062-16.599,22.249-29.658,27.541-39.199c-7.065,0.363-27.008,0.179-59.851-0.523c-24.724-0.35-43.794,0.523-57.207,2.646
	c5.297,5.646,15.362,18.722,30.189,39.199c12.005,16.595,22.599,28.953,31.781,37.076
	C815.741,240.859,824.919,227.797,837.987,210.841z M770.187,693.409c22.599-30.373,61.974-80.691,118.121-150.967
	c50.854-64.265,89.869-114.95,117.07-152.036c-10.599,0-29.138,0-55.625,0c-28.6-0.339-48.909-0.339-60.914,0
	C856.346,462.457,816.805,563.454,770.187,693.409z M892.546,266.463c-12.362,14.484-21.371,26.671-27.018,36.553H979.95
	c-16.605-27.898-36.377-51.909-59.325-72.05C916.03,237.679,906.671,249.517,892.546,266.463z"/>
</svg>
